# xmcd
#
# Track frame offsets: 
#        150
#        23393
#        36634
#        53731
#        66960
#        86798
#        101943
#        125059
#        139348
#        152517
#        176685
#        189793
#        209933
#        228317
#        237978
#        257288
#        272300
#        284637
#        299638
#        311413
#        323706
#        339698
#
# Disc length: 4783 seconds
#
# Revision: 0
# Processed by: cddbd v1.5.2PL0 Copyright (c) Steve Scherf et al.
# Submitted via: ExactAudioCopy v0.95b4
#
DISCID=5112ad16
DTITLE=Various Artist - Twice As Nice [CD2)
DYEAR=2009
DGENRE=R&B
TTITLE0=Fish Go Deep - The Cure and The Cause
TTITLE1=Code Red - Arabian Nightmare
TTITLE2=Copyright feat. Imaani - Bring Me Love
TTITLE3=DJ Spen - Gabryelle
TTITLE4=Blaze feat. Barbara Tucker - Most Precious Love
TTITLE5=Chocolate Puma - Always And Forever
TTITLE6=Ron Hall feat. Marc Eavens - The Way You Love Me
TTITLE7=Tom Novy - Your Body
TTITLE8=Rise Ashen - Second Wind
TTITLE9=Martin Solveig - I´m A Good Man
TTITLE10=The Wideboys and Dennis G - Sambuca
TTITLE11=T.J. Cases Don´t Stop 2006
TTITLE12=Jam and Face - Over
TTITLE13=Paulo and Rodriguez - Say Wat?
TTITLE14=TJR feat. Xavier - Just Gets Better
TTITLE15=MJ Cole feat. Laura Vane - Badboy
TTITLE16=Urbanomix feat. Lauryn Hill - Gonnabe Your Number 1
TTITLE17=Delinquent - Like A Feather
TTITLE18=Damon Trueitt and Todd Edwards - 15 Minutes
TTITLE19=Lenny Fontanna - Spirit Of The Sun
TTITLE20=Future Underground Nation - It´s The Way 99
TTITLE21=702 - You Don´t Know
EXTD=
EXTT0=
EXTT1=
EXTT2=
EXTT3=
EXTT4=
EXTT5=
EXTT6=
EXTT7=
EXTT8=
EXTT9=
EXTT10=
EXTT11=
EXTT12=
EXTT13=
EXTT14=
EXTT15=
EXTT16=
EXTT17=
EXTT18=
EXTT19=
EXTT20=
EXTT21=
PLAYORDER=
